<?xml version="1.0" encoding="UTF-8"?>
<!DOCTYPE svg PUBLIC "-//W3C//DTD SVG 1.1//EN" "http://www.w3.org/Graphics/SVG/1.1/DTD/svg11.dtd">
<!-- Creator: CorelDRAW 2021 (64-Bit) -->
<svg xmlns="http://www.w3.org/2000/svg" xml:space="preserve" width="1.30534in" height="0.348118in" version="1.1" shape-rendering="geometricPrecision" text-rendering="geometricPrecision" image-rendering="optimizeQuality" fill-rule="evenodd" clip-rule="evenodd"
viewBox="0 0 1333.06 355.51"
 xmlns:xlink="http://www.w3.org/1999/xlink"
 xmlns:xodm="http://www.corel.com/coreldraw/odm/2003">
 <g id="Layer_x0020_1">
  <metadata id="CorelCorpID_0Corel-Layer"/>
  <circle fill="black" stroke="black" stroke-width="7.09" stroke-linecap="round" stroke-linejoin="round" stroke-miterlimit="2.61313" cx="649.8" cy="177.76" r="174.21"/>
  <g id="_2602942253760">
   <path fill="white" fill-rule="nonzero" stroke="white" stroke-width="3.06" stroke-linecap="round" stroke-linejoin="round" stroke-miterlimit="2.61313" d="M699.62 132.4l16.56 0 0 158.86 -16.56 0 0 -158.86zm-99.4 158.86l-16.79 0 0 -157.66 0 -1.2 1.16 0 15.63 0 0 158.86zm100.99 -73.3l-102.8 0 0 -14.75 102.8 0 0 14.75z"/>
   <path fill="none" stroke="white" stroke-width="14.18" stroke-linecap="round" stroke-linejoin="bevel" stroke-miterlimit="2.61313" d="M532.82 181.83l117.58 -117.58m0 0l116.37 116.37"/>
  </g>
  <path fill="black" fill-rule="nonzero" d="M-0 296.9l0 -238.29 89.19 0c20.2,0 37.56,3.23 52.08,9.7 14.52,6.47 25.7,15.77 33.53,27.92 7.83,12.14 11.74,26.83 11.74,44.08 0,16.79 -3.92,31.26 -11.74,43.4 -7.83,12.14 -19.01,21.5 -33.53,28.08 -14.53,6.58 -31.89,9.87 -52.08,9.87l-75.23 0 11.23 -11.92 0 87.15 -25.19 0zm25.19 -85.1l-11.23 -12.25 74.55 0c23.83,0 41.93,-5.16 54.3,-15.49 12.37,-10.32 18.55,-24.91 18.55,-43.74 0,-19.06 -6.18,-33.81 -18.55,-44.25 -12.37,-10.44 -30.47,-15.66 -54.3,-15.66l-74.55 0 11.23 -11.92 0 143.31zm323.74 87.15c-18.16,0 -34.89,-3.01 -50.21,-9.02 -15.32,-6.01 -28.59,-14.47 -39.83,-25.36 -11.23,-10.9 -19.97,-23.72 -26.21,-38.47 -6.24,-14.75 -9.36,-30.86 -9.36,-48.34 0,-17.48 3.12,-33.59 9.36,-48.34 6.24,-14.75 15.03,-27.57 26.38,-38.47 11.35,-10.89 24.68,-19.34 40,-25.36 15.32,-6.01 32.06,-9.02 50.21,-9.02 18.16,0 34.78,2.84 49.87,8.51 15.09,5.67 27.97,14.3 38.64,25.87l-15.66 16c-9.98,-9.99 -20.99,-17.14 -33.02,-21.45 -12.03,-4.31 -24.96,-6.47 -38.81,-6.47 -14.75,0 -28.31,2.44 -40.68,7.32 -12.37,4.88 -23.15,11.8 -32.34,20.77 -9.19,8.97 -16.34,19.4 -21.45,31.32 -5.11,11.91 -7.66,25.02 -7.66,39.32 0,14.07 2.55,27.12 7.66,39.14 5.11,12.03 12.25,22.52 21.45,31.49 9.19,8.97 19.97,15.89 32.34,20.77 12.37,4.88 25.81,7.32 40.34,7.32 13.61,0 26.5,-2.04 38.64,-6.13 12.14,-4.08 23.32,-11.01 33.53,-20.77l14.3 19.07c-11.35,9.98 -24.62,17.53 -39.83,22.64 -15.21,5.11 -31.09,7.66 -47.66,7.66zm63.32 -33.36l0 -87.83 24.17 0 0 90.89 -24.17 -3.06zm548.07 33.36c-30.41,0 -54.35,-8.74 -71.83,-26.21 -17.47,-17.48 -26.21,-43.35 -26.21,-77.61l0 -136.51 25.19 0 0 135.49c0,28.14 6.36,48.9 19.07,62.3 12.71,13.39 30.64,20.08 53.78,20.08 23.38,0 41.42,-6.69 54.13,-20.08 12.71,-13.39 19.07,-34.16 19.07,-62.3l0 -135.49 24.51 0 0 136.51c0,34.27 -8.68,60.14 -26.04,77.61 -17.36,17.47 -41.25,26.21 -71.66,26.21zm173.61 -2.04l0 -238.29 102.8 0c26.55,0 47.15,5.34 61.79,16 14.64,10.67 21.96,25.76 21.96,45.28 0,12.94 -3.01,23.83 -9.02,32.68 -6.01,8.85 -14.18,15.55 -24.51,20.09 -10.32,4.54 -21.61,6.81 -33.87,6.81l5.79 -8.17c15.21,0 28.31,2.32 39.32,6.98 11,4.65 19.57,11.57 25.7,20.76 6.13,9.19 9.19,20.6 9.19,34.21 0,20.2 -7.43,35.86 -22.29,46.98 -14.87,11.12 -37.28,16.68 -67.23,16.68l-109.61 0zm25.19 -20.77l84.08 0c20.88,0 36.88,-3.57 48,-10.72 11.12,-7.15 16.68,-18.55 16.68,-34.21 0,-15.43 -5.56,-26.72 -16.68,-33.87 -11.12,-7.15 -27.12,-10.72 -48,-10.72l-86.81 0 0 -20.77 78.64 0c19.06,0 33.87,-3.63 44.42,-10.89 10.55,-7.26 15.83,-18.04 15.83,-32.34 0,-14.52 -5.28,-25.36 -15.83,-32.51 -10.55,-7.15 -25.36,-10.72 -44.42,-10.72l-75.91 0 0 196.76z"/>
 </g>
</svg>
